ISO-10303-21;
HEADER;
FILE_DESCRIPTION(('VdvView 3D - Gabinete de demonstracao'),'2;1');
FILE_NAME('demo-gabinete.step','2026-01-01T00:00:00',('VdvView'),('VdvView'),
'VdvView 3D','VdvView 3D','');
FILE_SCHEMA(('AUTOMOTIVE_DESIGN { 1 0 10303 214 1 1 1 1 }'));
ENDSEC;
DATA;
#1=APPLICATION_CONTEXT('automotive design');
#2=APPLICATION_PROTOCOL_DEFINITION('international standard','automotive_design',2010,#1);
#3=PRODUCT_CONTEXT('',#1,'mechanical');
#4=PRODUCT_DEFINITION_CONTEXT('part definition',#1,'design');
#5=(LENGTH_UNIT()NAMED_UNIT(*)SI_UNIT(.MILLI.,.METRE.));
#6=(NAMED_UNIT(*)PLANE_ANGLE_UNIT()SI_UNIT($,.RADIAN.));
#7=(NAMED_UNIT(*)SI_UNIT($,.STERADIAN.)SOLID_ANGLE_UNIT());
#8=UNCERTAINTY_MEASURE_WITH_UNIT(LENGTH_MEASURE(0.01),#5,'distance_accuracy_value','');
#9=(GEOMETRIC_REPRESENTATION_CONTEXT(3)GLOBAL_UNCERTAINTY_ASSIGNED_CONTEXT((#8))GLOBAL_UNIT_ASSIGNED_CONTEXT((#5,#6,#7))REPRESENTATION_CONTEXT('Context #1','3D Context'));
#10=PRODUCT('Lateral Esquerda','Lateral Esquerda','',(#3));
#11=PRODUCT_RELATED_PRODUCT_CATEGORY('part','',(#10));
#12=PRODUCT_DEFINITION_FORMATION('','',#10);
#13=PRODUCT_DEFINITION('design','',#12,#4);
#14=PRODUCT_DEFINITION_SHAPE('','',#13);
#15=CARTESIAN_POINT('',(0.0,0.0,0.0));
#16=CARTESIAN_POINT('',(18.0,0.0,0.0));
#17=CARTESIAN_POINT('',(18.0,350.0,0.0));
#18=CARTESIAN_POINT('',(0.0,350.0,0.0));
#19=CARTESIAN_POINT('',(0.0,0.0,720.0));
#20=CARTESIAN_POINT('',(18.0,0.0,720.0));
#21=CARTESIAN_POINT('',(18.0,350.0,720.0));
#22=CARTESIAN_POINT('',(0.0,350.0,720.0));
#23=VERTEX_POINT('',#15);
#24=VERTEX_POINT('',#16);
#25=VERTEX_POINT('',#17);
#26=VERTEX_POINT('',#18);
#27=VERTEX_POINT('',#19);
#28=VERTEX_POINT('',#20);
#29=VERTEX_POINT('',#21);
#30=VERTEX_POINT('',#22);
#31=DIRECTION('',(1.0,0.0,0.0));
#32=VECTOR('',#31,1.0);
#33=LINE('',#15,#32);
#34=EDGE_CURVE('',#23,#24,#33,.T.);
#35=DIRECTION('',(0.0,1.0,0.0));
#36=VECTOR('',#35,1.0);
#37=LINE('',#16,#36);
#38=EDGE_CURVE('',#24,#25,#37,.T.);
#39=DIRECTION('',(-1.0,0.0,0.0));
#40=VECTOR('',#39,1.0);
#41=LINE('',#17,#40);
#42=EDGE_CURVE('',#25,#26,#41,.T.);
#43=DIRECTION('',(0.0,-1.0,0.0));
#44=VECTOR('',#43,1.0);
#45=LINE('',#18,#44);
#46=EDGE_CURVE('',#26,#23,#45,.T.);
#47=DIRECTION('',(1.0,0.0,0.0));
#48=VECTOR('',#47,1.0);
#49=LINE('',#19,#48);
#50=EDGE_CURVE('',#27,#28,#49,.T.);
#51=DIRECTION('',(0.0,1.0,0.0));
#52=VECTOR('',#51,1.0);
#53=LINE('',#20,#52);
#54=EDGE_CURVE('',#28,#29,#53,.T.);
#55=DIRECTION('',(-1.0,0.0,0.0));
#56=VECTOR('',#55,1.0);
#57=LINE('',#21,#56);
#58=EDGE_CURVE('',#29,#30,#57,.T.);
#59=DIRECTION('',(0.0,-1.0,0.0));
#60=VECTOR('',#59,1.0);
#61=LINE('',#22,#60);
#62=EDGE_CURVE('',#30,#27,#61,.T.);
#63=DIRECTION('',(0.0,0.0,1.0));
#64=VECTOR('',#63,1.0);
#65=LINE('',#15,#64);
#66=EDGE_CURVE('',#23,#27,#65,.T.);
#67=DIRECTION('',(0.0,0.0,1.0));
#68=VECTOR('',#67,1.0);
#69=LINE('',#16,#68);
#70=EDGE_CURVE('',#24,#28,#69,.T.);
#71=DIRECTION('',(0.0,0.0,1.0));
#72=VECTOR('',#71,1.0);
#73=LINE('',#17,#72);
#74=EDGE_CURVE('',#25,#29,#73,.T.);
#75=DIRECTION('',(0.0,0.0,1.0));
#76=VECTOR('',#75,1.0);
#77=LINE('',#18,#76);
#78=EDGE_CURVE('',#26,#30,#77,.T.);
#79=ORIENTED_EDGE('',*,*,#46,.F.);
#80=ORIENTED_EDGE('',*,*,#42,.F.);
#81=ORIENTED_EDGE('',*,*,#38,.F.);
#82=ORIENTED_EDGE('',*,*,#34,.F.);
#83=EDGE_LOOP('',(#79,#80,#81,#82));
#84=FACE_OUTER_BOUND('',#83,.T.);
#85=CARTESIAN_POINT('',(0.0,0.0,0.0));
#86=DIRECTION('',(0.0,0.0,-1.0));
#87=DIRECTION('',(1.0,0.0,0.0));
#88=AXIS2_PLACEMENT_3D('',#85,#86,#87);
#89=PLANE('',#88);
#90=ADVANCED_FACE('',(#84),#89,.T.);
#91=ORIENTED_EDGE('',*,*,#50,.T.);
#92=ORIENTED_EDGE('',*,*,#54,.T.);
#93=ORIENTED_EDGE('',*,*,#58,.T.);
#94=ORIENTED_EDGE('',*,*,#62,.T.);
#95=EDGE_LOOP('',(#91,#92,#93,#94));
#96=FACE_OUTER_BOUND('',#95,.T.);
#97=CARTESIAN_POINT('',(0.0,0.0,720.0));
#98=DIRECTION('',(0.0,0.0,1.0));
#99=DIRECTION('',(1.0,0.0,0.0));
#100=AXIS2_PLACEMENT_3D('',#97,#98,#99);
#101=PLANE('',#100);
#102=ADVANCED_FACE('',(#96),#101,.T.);
#103=ORIENTED_EDGE('',*,*,#34,.T.);
#104=ORIENTED_EDGE('',*,*,#70,.T.);
#105=ORIENTED_EDGE('',*,*,#50,.F.);
#106=ORIENTED_EDGE('',*,*,#66,.F.);
#107=EDGE_LOOP('',(#103,#104,#105,#106));
#108=FACE_OUTER_BOUND('',#107,.T.);
#109=CARTESIAN_POINT('',(0.0,0.0,0.0));
#110=DIRECTION('',(0.0,-1.0,0.0));
#111=DIRECTION('',(1.0,0.0,0.0));
#112=AXIS2_PLACEMENT_3D('',#109,#110,#111);
#113=PLANE('',#112);
#114=ADVANCED_FACE('',(#108),#113,.T.);
#115=ORIENTED_EDGE('',*,*,#42,.T.);
#116=ORIENTED_EDGE('',*,*,#78,.T.);
#117=ORIENTED_EDGE('',*,*,#58,.F.);
#118=ORIENTED_EDGE('',*,*,#74,.F.);
#119=EDGE_LOOP('',(#115,#116,#117,#118));
#120=FACE_OUTER_BOUND('',#119,.T.);
#121=CARTESIAN_POINT('',(18.0,350.0,0.0));
#122=DIRECTION('',(0.0,1.0,0.0));
#123=DIRECTION('',(-1.0,0.0,0.0));
#124=AXIS2_PLACEMENT_3D('',#121,#122,#123);
#125=PLANE('',#124);
#126=ADVANCED_FACE('',(#120),#125,.T.);
#127=ORIENTED_EDGE('',*,*,#66,.T.);
#128=ORIENTED_EDGE('',*,*,#62,.F.);
#129=ORIENTED_EDGE('',*,*,#78,.F.);
#130=ORIENTED_EDGE('',*,*,#46,.T.);
#131=EDGE_LOOP('',(#127,#128,#129,#130));
#132=FACE_OUTER_BOUND('',#131,.T.);
#133=CARTESIAN_POINT('',(0.0,0.0,0.0));
#134=DIRECTION('',(-1.0,0.0,0.0));
#135=DIRECTION('',(0.0,0.0,1.0));
#136=AXIS2_PLACEMENT_3D('',#133,#134,#135);
#137=PLANE('',#136);
#138=ADVANCED_FACE('',(#132),#137,.T.);
#139=ORIENTED_EDGE('',*,*,#38,.T.);
#140=ORIENTED_EDGE('',*,*,#74,.T.);
#141=ORIENTED_EDGE('',*,*,#54,.F.);
#142=ORIENTED_EDGE('',*,*,#70,.F.);
#143=EDGE_LOOP('',(#139,#140,#141,#142));
#144=FACE_OUTER_BOUND('',#143,.T.);
#145=CARTESIAN_POINT('',(18.0,0.0,0.0));
#146=DIRECTION('',(1.0,0.0,0.0));
#147=DIRECTION('',(0.0,1.0,0.0));
#148=AXIS2_PLACEMENT_3D('',#145,#146,#147);
#149=PLANE('',#148);
#150=ADVANCED_FACE('',(#144),#149,.T.);
#151=CLOSED_SHELL('',(#90,#102,#114,#126,#138,#150));
#152=MANIFOLD_SOLID_BREP('Lateral Esquerda',#151);
#153=CARTESIAN_POINT('',(0.0,0.0,0.0));
#154=DIRECTION('',(0.0,0.0,1.0));
#155=DIRECTION('',(1.0,0.0,0.0));
#156=AXIS2_PLACEMENT_3D('',#153,#154,#155);
#157=ADVANCED_BREP_SHAPE_REPRESENTATION('Lateral Esquerda',(#156,#152),#9);
#158=SHAPE_DEFINITION_REPRESENTATION(#14,#157);
#159=COLOUR_RGB('',0.784,0.604,0.392);
#160=FILL_AREA_STYLE_COLOUR('',#159);
#161=FILL_AREA_STYLE('',(#160));
#162=SURFACE_STYLE_FILL_AREA(#161);
#163=SURFACE_SIDE_STYLE('',(#162));
#164=SURFACE_STYLE_USAGE(.BOTH.,#163);
#165=PRESENTATION_STYLE_ASSIGNMENT((#164));
#166=STYLED_ITEM('',(#165),#152);
#167=PRODUCT('Lateral Direita','Lateral Direita','',(#3));
#168=PRODUCT_RELATED_PRODUCT_CATEGORY('part','',(#167));
#169=PRODUCT_DEFINITION_FORMATION('','',#167);
#170=PRODUCT_DEFINITION('design','',#169,#4);
#171=PRODUCT_DEFINITION_SHAPE('','',#170);
#172=CARTESIAN_POINT('',(582.0,0.0,0.0));
#173=CARTESIAN_POINT('',(600.0,0.0,0.0));
#174=CARTESIAN_POINT('',(600.0,350.0,0.0));
#175=CARTESIAN_POINT('',(582.0,350.0,0.0));
#176=CARTESIAN_POINT('',(582.0,0.0,720.0));
#177=CARTESIAN_POINT('',(600.0,0.0,720.0));
#178=CARTESIAN_POINT('',(600.0,350.0,720.0));
#179=CARTESIAN_POINT('',(582.0,350.0,720.0));
#180=VERTEX_POINT('',#172);
#181=VERTEX_POINT('',#173);
#182=VERTEX_POINT('',#174);
#183=VERTEX_POINT('',#175);
#184=VERTEX_POINT('',#176);
#185=VERTEX_POINT('',#177);
#186=VERTEX_POINT('',#178);
#187=VERTEX_POINT('',#179);
#188=DIRECTION('',(1.0,0.0,0.0));
#189=VECTOR('',#188,1.0);
#190=LINE('',#172,#189);
#191=EDGE_CURVE('',#180,#181,#190,.T.);
#192=DIRECTION('',(0.0,1.0,0.0));
#193=VECTOR('',#192,1.0);
#194=LINE('',#173,#193);
#195=EDGE_CURVE('',#181,#182,#194,.T.);
#196=DIRECTION('',(-1.0,0.0,0.0));
#197=VECTOR('',#196,1.0);
#198=LINE('',#174,#197);
#199=EDGE_CURVE('',#182,#183,#198,.T.);
#200=DIRECTION('',(0.0,-1.0,0.0));
#201=VECTOR('',#200,1.0);
#202=LINE('',#175,#201);
#203=EDGE_CURVE('',#183,#180,#202,.T.);
#204=DIRECTION('',(1.0,0.0,0.0));
#205=VECTOR('',#204,1.0);
#206=LINE('',#176,#205);
#207=EDGE_CURVE('',#184,#185,#206,.T.);
#208=DIRECTION('',(0.0,1.0,0.0));
#209=VECTOR('',#208,1.0);
#210=LINE('',#177,#209);
#211=EDGE_CURVE('',#185,#186,#210,.T.);
#212=DIRECTION('',(-1.0,0.0,0.0));
#213=VECTOR('',#212,1.0);
#214=LINE('',#178,#213);
#215=EDGE_CURVE('',#186,#187,#214,.T.);
#216=DIRECTION('',(0.0,-1.0,0.0));
#217=VECTOR('',#216,1.0);
#218=LINE('',#179,#217);
#219=EDGE_CURVE('',#187,#184,#218,.T.);
#220=DIRECTION('',(0.0,0.0,1.0));
#221=VECTOR('',#220,1.0);
#222=LINE('',#172,#221);
#223=EDGE_CURVE('',#180,#184,#222,.T.);
#224=DIRECTION('',(0.0,0.0,1.0));
#225=VECTOR('',#224,1.0);
#226=LINE('',#173,#225);
#227=EDGE_CURVE('',#181,#185,#226,.T.);
#228=DIRECTION('',(0.0,0.0,1.0));
#229=VECTOR('',#228,1.0);
#230=LINE('',#174,#229);
#231=EDGE_CURVE('',#182,#186,#230,.T.);
#232=DIRECTION('',(0.0,0.0,1.0));
#233=VECTOR('',#232,1.0);
#234=LINE('',#175,#233);
#235=EDGE_CURVE('',#183,#187,#234,.T.);
#236=ORIENTED_EDGE('',*,*,#203,.F.);
#237=ORIENTED_EDGE('',*,*,#199,.F.);
#238=ORIENTED_EDGE('',*,*,#195,.F.);
#239=ORIENTED_EDGE('',*,*,#191,.F.);
#240=EDGE_LOOP('',(#236,#237,#238,#239));
#241=FACE_OUTER_BOUND('',#240,.T.);
#242=CARTESIAN_POINT('',(582.0,0.0,0.0));
#243=DIRECTION('',(0.0,0.0,-1.0));
#244=DIRECTION('',(1.0,0.0,0.0));
#245=AXIS2_PLACEMENT_3D('',#242,#243,#244);
#246=PLANE('',#245);
#247=ADVANCED_FACE('',(#241),#246,.T.);
#248=ORIENTED_EDGE('',*,*,#207,.T.);
#249=ORIENTED_EDGE('',*,*,#211,.T.);
#250=ORIENTED_EDGE('',*,*,#215,.T.);
#251=ORIENTED_EDGE('',*,*,#219,.T.);
#252=EDGE_LOOP('',(#248,#249,#250,#251));
#253=FACE_OUTER_BOUND('',#252,.T.);
#254=CARTESIAN_POINT('',(582.0,0.0,720.0));
#255=DIRECTION('',(0.0,0.0,1.0));
#256=DIRECTION('',(1.0,0.0,0.0));
#257=AXIS2_PLACEMENT_3D('',#254,#255,#256);
#258=PLANE('',#257);
#259=ADVANCED_FACE('',(#253),#258,.T.);
#260=ORIENTED_EDGE('',*,*,#191,.T.);
#261=ORIENTED_EDGE('',*,*,#227,.T.);
#262=ORIENTED_EDGE('',*,*,#207,.F.);
#263=ORIENTED_EDGE('',*,*,#223,.F.);
#264=EDGE_LOOP('',(#260,#261,#262,#263));
#265=FACE_OUTER_BOUND('',#264,.T.);
#266=CARTESIAN_POINT('',(582.0,0.0,0.0));
#267=DIRECTION('',(0.0,-1.0,0.0));
#268=DIRECTION('',(1.0,0.0,0.0));
#269=AXIS2_PLACEMENT_3D('',#266,#267,#268);
#270=PLANE('',#269);
#271=ADVANCED_FACE('',(#265),#270,.T.);
#272=ORIENTED_EDGE('',*,*,#199,.T.);
#273=ORIENTED_EDGE('',*,*,#235,.T.);
#274=ORIENTED_EDGE('',*,*,#215,.F.);
#275=ORIENTED_EDGE('',*,*,#231,.F.);
#276=EDGE_LOOP('',(#272,#273,#274,#275));
#277=FACE_OUTER_BOUND('',#276,.T.);
#278=CARTESIAN_POINT('',(600.0,350.0,0.0));
#279=DIRECTION('',(0.0,1.0,0.0));
#280=DIRECTION('',(-1.0,0.0,0.0));
#281=AXIS2_PLACEMENT_3D('',#278,#279,#280);
#282=PLANE('',#281);
#283=ADVANCED_FACE('',(#277),#282,.T.);
#284=ORIENTED_EDGE('',*,*,#223,.T.);
#285=ORIENTED_EDGE('',*,*,#219,.F.);
#286=ORIENTED_EDGE('',*,*,#235,.F.);
#287=ORIENTED_EDGE('',*,*,#203,.T.);
#288=EDGE_LOOP('',(#284,#285,#286,#287));
#289=FACE_OUTER_BOUND('',#288,.T.);
#290=CARTESIAN_POINT('',(582.0,0.0,0.0));
#291=DIRECTION('',(-1.0,0.0,0.0));
#292=DIRECTION('',(0.0,0.0,1.0));
#293=AXIS2_PLACEMENT_3D('',#290,#291,#292);
#294=PLANE('',#293);
#295=ADVANCED_FACE('',(#289),#294,.T.);
#296=ORIENTED_EDGE('',*,*,#195,.T.);
#297=ORIENTED_EDGE('',*,*,#231,.T.);
#298=ORIENTED_EDGE('',*,*,#211,.F.);
#299=ORIENTED_EDGE('',*,*,#227,.F.);
#300=EDGE_LOOP('',(#296,#297,#298,#299));
#301=FACE_OUTER_BOUND('',#300,.T.);
#302=CARTESIAN_POINT('',(600.0,0.0,0.0));
#303=DIRECTION('',(1.0,0.0,0.0));
#304=DIRECTION('',(0.0,1.0,0.0));
#305=AXIS2_PLACEMENT_3D('',#302,#303,#304);
#306=PLANE('',#305);
#307=ADVANCED_FACE('',(#301),#306,.T.);
#308=CLOSED_SHELL('',(#247,#259,#271,#283,#295,#307));
#309=MANIFOLD_SOLID_BREP('Lateral Direita',#308);
#310=CARTESIAN_POINT('',(0.0,0.0,0.0));
#311=DIRECTION('',(0.0,0.0,1.0));
#312=DIRECTION('',(1.0,0.0,0.0));
#313=AXIS2_PLACEMENT_3D('',#310,#311,#312);
#314=ADVANCED_BREP_SHAPE_REPRESENTATION('Lateral Direita',(#313,#309),#9);
#315=SHAPE_DEFINITION_REPRESENTATION(#171,#314);
#316=COLOUR_RGB('',0.784,0.604,0.392);
#317=FILL_AREA_STYLE_COLOUR('',#316);
#318=FILL_AREA_STYLE('',(#317));
#319=SURFACE_STYLE_FILL_AREA(#318);
#320=SURFACE_SIDE_STYLE('',(#319));
#321=SURFACE_STYLE_USAGE(.BOTH.,#320);
#322=PRESENTATION_STYLE_ASSIGNMENT((#321));
#323=STYLED_ITEM('',(#322),#309);
#324=PRODUCT('Base','Base','',(#3));
#325=PRODUCT_RELATED_PRODUCT_CATEGORY('part','',(#324));
#326=PRODUCT_DEFINITION_FORMATION('','',#324);
#327=PRODUCT_DEFINITION('design','',#326,#4);
#328=PRODUCT_DEFINITION_SHAPE('','',#327);
#329=CARTESIAN_POINT('',(18.0,0.0,0.0));
#330=CARTESIAN_POINT('',(582.0,0.0,0.0));
#331=CARTESIAN_POINT('',(582.0,350.0,0.0));
#332=CARTESIAN_POINT('',(18.0,350.0,0.0));
#333=CARTESIAN_POINT('',(18.0,0.0,18.0));
#334=CARTESIAN_POINT('',(582.0,0.0,18.0));
#335=CARTESIAN_POINT('',(582.0,350.0,18.0));
#336=CARTESIAN_POINT('',(18.0,350.0,18.0));
#337=VERTEX_POINT('',#329);
#338=VERTEX_POINT('',#330);
#339=VERTEX_POINT('',#331);
#340=VERTEX_POINT('',#332);
#341=VERTEX_POINT('',#333);
#342=VERTEX_POINT('',#334);
#343=VERTEX_POINT('',#335);
#344=VERTEX_POINT('',#336);
#345=DIRECTION('',(1.0,0.0,0.0));
#346=VECTOR('',#345,1.0);
#347=LINE('',#329,#346);
#348=EDGE_CURVE('',#337,#338,#347,.T.);
#349=DIRECTION('',(0.0,1.0,0.0));
#350=VECTOR('',#349,1.0);
#351=LINE('',#330,#350);
#352=EDGE_CURVE('',#338,#339,#351,.T.);
#353=DIRECTION('',(-1.0,0.0,0.0));
#354=VECTOR('',#353,1.0);
#355=LINE('',#331,#354);
#356=EDGE_CURVE('',#339,#340,#355,.T.);
#357=DIRECTION('',(0.0,-1.0,0.0));
#358=VECTOR('',#357,1.0);
#359=LINE('',#332,#358);
#360=EDGE_CURVE('',#340,#337,#359,.T.);
#361=DIRECTION('',(1.0,0.0,0.0));
#362=VECTOR('',#361,1.0);
#363=LINE('',#333,#362);
#364=EDGE_CURVE('',#341,#342,#363,.T.);
#365=DIRECTION('',(0.0,1.0,0.0));
#366=VECTOR('',#365,1.0);
#367=LINE('',#334,#366);
#368=EDGE_CURVE('',#342,#343,#367,.T.);
#369=DIRECTION('',(-1.0,0.0,0.0));
#370=VECTOR('',#369,1.0);
#371=LINE('',#335,#370);
#372=EDGE_CURVE('',#343,#344,#371,.T.);
#373=DIRECTION('',(0.0,-1.0,0.0));
#374=VECTOR('',#373,1.0);
#375=LINE('',#336,#374);
#376=EDGE_CURVE('',#344,#341,#375,.T.);
#377=DIRECTION('',(0.0,0.0,1.0));
#378=VECTOR('',#377,1.0);
#379=LINE('',#329,#378);
#380=EDGE_CURVE('',#337,#341,#379,.T.);
#381=DIRECTION('',(0.0,0.0,1.0));
#382=VECTOR('',#381,1.0);
#383=LINE('',#330,#382);
#384=EDGE_CURVE('',#338,#342,#383,.T.);
#385=DIRECTION('',(0.0,0.0,1.0));
#386=VECTOR('',#385,1.0);
#387=LINE('',#331,#386);
#388=EDGE_CURVE('',#339,#343,#387,.T.);
#389=DIRECTION('',(0.0,0.0,1.0));
#390=VECTOR('',#389,1.0);
#391=LINE('',#332,#390);
#392=EDGE_CURVE('',#340,#344,#391,.T.);
#393=ORIENTED_EDGE('',*,*,#360,.F.);
#394=ORIENTED_EDGE('',*,*,#356,.F.);
#395=ORIENTED_EDGE('',*,*,#352,.F.);
#396=ORIENTED_EDGE('',*,*,#348,.F.);
#397=EDGE_LOOP('',(#393,#394,#395,#396));
#398=FACE_OUTER_BOUND('',#397,.T.);
#399=CARTESIAN_POINT('',(18.0,0.0,0.0));
#400=DIRECTION('',(0.0,0.0,-1.0));
#401=DIRECTION('',(1.0,0.0,0.0));
#402=AXIS2_PLACEMENT_3D('',#399,#400,#401);
#403=PLANE('',#402);
#404=ADVANCED_FACE('',(#398),#403,.T.);
#405=ORIENTED_EDGE('',*,*,#364,.T.);
#406=ORIENTED_EDGE('',*,*,#368,.T.);
#407=ORIENTED_EDGE('',*,*,#372,.T.);
#408=ORIENTED_EDGE('',*,*,#376,.T.);
#409=EDGE_LOOP('',(#405,#406,#407,#408));
#410=FACE_OUTER_BOUND('',#409,.T.);
#411=CARTESIAN_POINT('',(18.0,0.0,18.0));
#412=DIRECTION('',(0.0,0.0,1.0));
#413=DIRECTION('',(1.0,0.0,0.0));
#414=AXIS2_PLACEMENT_3D('',#411,#412,#413);
#415=PLANE('',#414);
#416=ADVANCED_FACE('',(#410),#415,.T.);
#417=ORIENTED_EDGE('',*,*,#348,.T.);
#418=ORIENTED_EDGE('',*,*,#384,.T.);
#419=ORIENTED_EDGE('',*,*,#364,.F.);
#420=ORIENTED_EDGE('',*,*,#380,.F.);
#421=EDGE_LOOP('',(#417,#418,#419,#420));
#422=FACE_OUTER_BOUND('',#421,.T.);
#423=CARTESIAN_POINT('',(18.0,0.0,0.0));
#424=DIRECTION('',(0.0,-1.0,0.0));
#425=DIRECTION('',(1.0,0.0,0.0));
#426=AXIS2_PLACEMENT_3D('',#423,#424,#425);
#427=PLANE('',#426);
#428=ADVANCED_FACE('',(#422),#427,.T.);
#429=ORIENTED_EDGE('',*,*,#356,.T.);
#430=ORIENTED_EDGE('',*,*,#392,.T.);
#431=ORIENTED_EDGE('',*,*,#372,.F.);
#432=ORIENTED_EDGE('',*,*,#388,.F.);
#433=EDGE_LOOP('',(#429,#430,#431,#432));
#434=FACE_OUTER_BOUND('',#433,.T.);
#435=CARTESIAN_POINT('',(582.0,350.0,0.0));
#436=DIRECTION('',(0.0,1.0,0.0));
#437=DIRECTION('',(-1.0,0.0,0.0));
#438=AXIS2_PLACEMENT_3D('',#435,#436,#437);
#439=PLANE('',#438);
#440=ADVANCED_FACE('',(#434),#439,.T.);
#441=ORIENTED_EDGE('',*,*,#380,.T.);
#442=ORIENTED_EDGE('',*,*,#376,.F.);
#443=ORIENTED_EDGE('',*,*,#392,.F.);
#444=ORIENTED_EDGE('',*,*,#360,.T.);
#445=EDGE_LOOP('',(#441,#442,#443,#444));
#446=FACE_OUTER_BOUND('',#445,.T.);
#447=CARTESIAN_POINT('',(18.0,0.0,0.0));
#448=DIRECTION('',(-1.0,0.0,0.0));
#449=DIRECTION('',(0.0,0.0,1.0));
#450=AXIS2_PLACEMENT_3D('',#447,#448,#449);
#451=PLANE('',#450);
#452=ADVANCED_FACE('',(#446),#451,.T.);
#453=ORIENTED_EDGE('',*,*,#352,.T.);
#454=ORIENTED_EDGE('',*,*,#388,.T.);
#455=ORIENTED_EDGE('',*,*,#368,.F.);
#456=ORIENTED_EDGE('',*,*,#384,.F.);
#457=EDGE_LOOP('',(#453,#454,#455,#456));
#458=FACE_OUTER_BOUND('',#457,.T.);
#459=CARTESIAN_POINT('',(582.0,0.0,0.0));
#460=DIRECTION('',(1.0,0.0,0.0));
#461=DIRECTION('',(0.0,1.0,0.0));
#462=AXIS2_PLACEMENT_3D('',#459,#460,#461);
#463=PLANE('',#462);
#464=ADVANCED_FACE('',(#458),#463,.T.);
#465=CLOSED_SHELL('',(#404,#416,#428,#440,#452,#464));
#466=MANIFOLD_SOLID_BREP('Base',#465);
#467=CARTESIAN_POINT('',(0.0,0.0,0.0));
#468=DIRECTION('',(0.0,0.0,1.0));
#469=DIRECTION('',(1.0,0.0,0.0));
#470=AXIS2_PLACEMENT_3D('',#467,#468,#469);
#471=ADVANCED_BREP_SHAPE_REPRESENTATION('Base',(#470,#466),#9);
#472=SHAPE_DEFINITION_REPRESENTATION(#328,#471);
#473=COLOUR_RGB('',0.824,0.663,0.451);
#474=FILL_AREA_STYLE_COLOUR('',#473);
#475=FILL_AREA_STYLE('',(#474));
#476=SURFACE_STYLE_FILL_AREA(#475);
#477=SURFACE_SIDE_STYLE('',(#476));
#478=SURFACE_STYLE_USAGE(.BOTH.,#477);
#479=PRESENTATION_STYLE_ASSIGNMENT((#478));
#480=STYLED_ITEM('',(#479),#466);
#481=PRODUCT('Topo','Topo','',(#3));
#482=PRODUCT_RELATED_PRODUCT_CATEGORY('part','',(#481));
#483=PRODUCT_DEFINITION_FORMATION('','',#481);
#484=PRODUCT_DEFINITION('design','',#483,#4);
#485=PRODUCT_DEFINITION_SHAPE('','',#484);
#486=CARTESIAN_POINT('',(18.0,0.0,702.0));
#487=CARTESIAN_POINT('',(582.0,0.0,702.0));
#488=CARTESIAN_POINT('',(582.0,350.0,702.0));
#489=CARTESIAN_POINT('',(18.0,350.0,702.0));
#490=CARTESIAN_POINT('',(18.0,0.0,720.0));
#491=CARTESIAN_POINT('',(582.0,0.0,720.0));
#492=CARTESIAN_POINT('',(582.0,350.0,720.0));
#493=CARTESIAN_POINT('',(18.0,350.0,720.0));
#494=VERTEX_POINT('',#486);
#495=VERTEX_POINT('',#487);
#496=VERTEX_POINT('',#488);
#497=VERTEX_POINT('',#489);
#498=VERTEX_POINT('',#490);
#499=VERTEX_POINT('',#491);
#500=VERTEX_POINT('',#492);
#501=VERTEX_POINT('',#493);
#502=DIRECTION('',(1.0,0.0,0.0));
#503=VECTOR('',#502,1.0);
#504=LINE('',#486,#503);
#505=EDGE_CURVE('',#494,#495,#504,.T.);
#506=DIRECTION('',(0.0,1.0,0.0));
#507=VECTOR('',#506,1.0);
#508=LINE('',#487,#507);
#509=EDGE_CURVE('',#495,#496,#508,.T.);
#510=DIRECTION('',(-1.0,0.0,0.0));
#511=VECTOR('',#510,1.0);
#512=LINE('',#488,#511);
#513=EDGE_CURVE('',#496,#497,#512,.T.);
#514=DIRECTION('',(0.0,-1.0,0.0));
#515=VECTOR('',#514,1.0);
#516=LINE('',#489,#515);
#517=EDGE_CURVE('',#497,#494,#516,.T.);
#518=DIRECTION('',(1.0,0.0,0.0));
#519=VECTOR('',#518,1.0);
#520=LINE('',#490,#519);
#521=EDGE_CURVE('',#498,#499,#520,.T.);
#522=DIRECTION('',(0.0,1.0,0.0));
#523=VECTOR('',#522,1.0);
#524=LINE('',#491,#523);
#525=EDGE_CURVE('',#499,#500,#524,.T.);
#526=DIRECTION('',(-1.0,0.0,0.0));
#527=VECTOR('',#526,1.0);
#528=LINE('',#492,#527);
#529=EDGE_CURVE('',#500,#501,#528,.T.);
#530=DIRECTION('',(0.0,-1.0,0.0));
#531=VECTOR('',#530,1.0);
#532=LINE('',#493,#531);
#533=EDGE_CURVE('',#501,#498,#532,.T.);
#534=DIRECTION('',(0.0,0.0,1.0));
#535=VECTOR('',#534,1.0);
#536=LINE('',#486,#535);
#537=EDGE_CURVE('',#494,#498,#536,.T.);
#538=DIRECTION('',(0.0,0.0,1.0));
#539=VECTOR('',#538,1.0);
#540=LINE('',#487,#539);
#541=EDGE_CURVE('',#495,#499,#540,.T.);
#542=DIRECTION('',(0.0,0.0,1.0));
#543=VECTOR('',#542,1.0);
#544=LINE('',#488,#543);
#545=EDGE_CURVE('',#496,#500,#544,.T.);
#546=DIRECTION('',(0.0,0.0,1.0));
#547=VECTOR('',#546,1.0);
#548=LINE('',#489,#547);
#549=EDGE_CURVE('',#497,#501,#548,.T.);
#550=ORIENTED_EDGE('',*,*,#517,.F.);
#551=ORIENTED_EDGE('',*,*,#513,.F.);
#552=ORIENTED_EDGE('',*,*,#509,.F.);
#553=ORIENTED_EDGE('',*,*,#505,.F.);
#554=EDGE_LOOP('',(#550,#551,#552,#553));
#555=FACE_OUTER_BOUND('',#554,.T.);
#556=CARTESIAN_POINT('',(18.0,0.0,702.0));
#557=DIRECTION('',(0.0,0.0,-1.0));
#558=DIRECTION('',(1.0,0.0,0.0));
#559=AXIS2_PLACEMENT_3D('',#556,#557,#558);
#560=PLANE('',#559);
#561=ADVANCED_FACE('',(#555),#560,.T.);
#562=ORIENTED_EDGE('',*,*,#521,.T.);
#563=ORIENTED_EDGE('',*,*,#525,.T.);
#564=ORIENTED_EDGE('',*,*,#529,.T.);
#565=ORIENTED_EDGE('',*,*,#533,.T.);
#566=EDGE_LOOP('',(#562,#563,#564,#565));
#567=FACE_OUTER_BOUND('',#566,.T.);
#568=CARTESIAN_POINT('',(18.0,0.0,720.0));
#569=DIRECTION('',(0.0,0.0,1.0));
#570=DIRECTION('',(1.0,0.0,0.0));
#571=AXIS2_PLACEMENT_3D('',#568,#569,#570);
#572=PLANE('',#571);
#573=ADVANCED_FACE('',(#567),#572,.T.);
#574=ORIENTED_EDGE('',*,*,#505,.T.);
#575=ORIENTED_EDGE('',*,*,#541,.T.);
#576=ORIENTED_EDGE('',*,*,#521,.F.);
#577=ORIENTED_EDGE('',*,*,#537,.F.);
#578=EDGE_LOOP('',(#574,#575,#576,#577));
#579=FACE_OUTER_BOUND('',#578,.T.);
#580=CARTESIAN_POINT('',(18.0,0.0,702.0));
#581=DIRECTION('',(0.0,-1.0,0.0));
#582=DIRECTION('',(1.0,0.0,0.0));
#583=AXIS2_PLACEMENT_3D('',#580,#581,#582);
#584=PLANE('',#583);
#585=ADVANCED_FACE('',(#579),#584,.T.);
#586=ORIENTED_EDGE('',*,*,#513,.T.);
#587=ORIENTED_EDGE('',*,*,#549,.T.);
#588=ORIENTED_EDGE('',*,*,#529,.F.);
#589=ORIENTED_EDGE('',*,*,#545,.F.);
#590=EDGE_LOOP('',(#586,#587,#588,#589));
#591=FACE_OUTER_BOUND('',#590,.T.);
#592=CARTESIAN_POINT('',(582.0,350.0,702.0));
#593=DIRECTION('',(0.0,1.0,0.0));
#594=DIRECTION('',(-1.0,0.0,0.0));
#595=AXIS2_PLACEMENT_3D('',#592,#593,#594);
#596=PLANE('',#595);
#597=ADVANCED_FACE('',(#591),#596,.T.);
#598=ORIENTED_EDGE('',*,*,#537,.T.);
#599=ORIENTED_EDGE('',*,*,#533,.F.);
#600=ORIENTED_EDGE('',*,*,#549,.F.);
#601=ORIENTED_EDGE('',*,*,#517,.T.);
#602=EDGE_LOOP('',(#598,#599,#600,#601));
#603=FACE_OUTER_BOUND('',#602,.T.);
#604=CARTESIAN_POINT('',(18.0,0.0,702.0));
#605=DIRECTION('',(-1.0,0.0,0.0));
#606=DIRECTION('',(0.0,0.0,1.0));
#607=AXIS2_PLACEMENT_3D('',#604,#605,#606);
#608=PLANE('',#607);
#609=ADVANCED_FACE('',(#603),#608,.T.);
#610=ORIENTED_EDGE('',*,*,#509,.T.);
#611=ORIENTED_EDGE('',*,*,#545,.T.);
#612=ORIENTED_EDGE('',*,*,#525,.F.);
#613=ORIENTED_EDGE('',*,*,#541,.F.);
#614=EDGE_LOOP('',(#610,#611,#612,#613));
#615=FACE_OUTER_BOUND('',#614,.T.);
#616=CARTESIAN_POINT('',(582.0,0.0,702.0));
#617=DIRECTION('',(1.0,0.0,0.0));
#618=DIRECTION('',(0.0,1.0,0.0));
#619=AXIS2_PLACEMENT_3D('',#616,#617,#618);
#620=PLANE('',#619);
#621=ADVANCED_FACE('',(#615),#620,.T.);
#622=CLOSED_SHELL('',(#561,#573,#585,#597,#609,#621));
#623=MANIFOLD_SOLID_BREP('Topo',#622);
#624=CARTESIAN_POINT('',(0.0,0.0,0.0));
#625=DIRECTION('',(0.0,0.0,1.0));
#626=DIRECTION('',(1.0,0.0,0.0));
#627=AXIS2_PLACEMENT_3D('',#624,#625,#626);
#628=ADVANCED_BREP_SHAPE_REPRESENTATION('Topo',(#627,#623),#9);
#629=SHAPE_DEFINITION_REPRESENTATION(#485,#628);
#630=COLOUR_RGB('',0.824,0.663,0.451);
#631=FILL_AREA_STYLE_COLOUR('',#630);
#632=FILL_AREA_STYLE('',(#631));
#633=SURFACE_STYLE_FILL_AREA(#632);
#634=SURFACE_SIDE_STYLE('',(#633));
#635=SURFACE_STYLE_USAGE(.BOTH.,#634);
#636=PRESENTATION_STYLE_ASSIGNMENT((#635));
#637=STYLED_ITEM('',(#636),#623);
#638=PRODUCT('Fundo','Fundo','',(#3));
#639=PRODUCT_RELATED_PRODUCT_CATEGORY('part','',(#638));
#640=PRODUCT_DEFINITION_FORMATION('','',#638);
#641=PRODUCT_DEFINITION('design','',#640,#4);
#642=PRODUCT_DEFINITION_SHAPE('','',#641);
#643=CARTESIAN_POINT('',(18.0,344.0,18.0));
#644=CARTESIAN_POINT('',(582.0,344.0,18.0));
#645=CARTESIAN_POINT('',(582.0,350.0,18.0));
#646=CARTESIAN_POINT('',(18.0,350.0,18.0));
#647=CARTESIAN_POINT('',(18.0,344.0,702.0));
#648=CARTESIAN_POINT('',(582.0,344.0,702.0));
#649=CARTESIAN_POINT('',(582.0,350.0,702.0));
#650=CARTESIAN_POINT('',(18.0,350.0,702.0));
#651=VERTEX_POINT('',#643);
#652=VERTEX_POINT('',#644);
#653=VERTEX_POINT('',#645);
#654=VERTEX_POINT('',#646);
#655=VERTEX_POINT('',#647);
#656=VERTEX_POINT('',#648);
#657=VERTEX_POINT('',#649);
#658=VERTEX_POINT('',#650);
#659=DIRECTION('',(1.0,0.0,0.0));
#660=VECTOR('',#659,1.0);
#661=LINE('',#643,#660);
#662=EDGE_CURVE('',#651,#652,#661,.T.);
#663=DIRECTION('',(0.0,1.0,0.0));
#664=VECTOR('',#663,1.0);
#665=LINE('',#644,#664);
#666=EDGE_CURVE('',#652,#653,#665,.T.);
#667=DIRECTION('',(-1.0,0.0,0.0));
#668=VECTOR('',#667,1.0);
#669=LINE('',#645,#668);
#670=EDGE_CURVE('',#653,#654,#669,.T.);
#671=DIRECTION('',(0.0,-1.0,0.0));
#672=VECTOR('',#671,1.0);
#673=LINE('',#646,#672);
#674=EDGE_CURVE('',#654,#651,#673,.T.);
#675=DIRECTION('',(1.0,0.0,0.0));
#676=VECTOR('',#675,1.0);
#677=LINE('',#647,#676);
#678=EDGE_CURVE('',#655,#656,#677,.T.);
#679=DIRECTION('',(0.0,1.0,0.0));
#680=VECTOR('',#679,1.0);
#681=LINE('',#648,#680);
#682=EDGE_CURVE('',#656,#657,#681,.T.);
#683=DIRECTION('',(-1.0,0.0,0.0));
#684=VECTOR('',#683,1.0);
#685=LINE('',#649,#684);
#686=EDGE_CURVE('',#657,#658,#685,.T.);
#687=DIRECTION('',(0.0,-1.0,0.0));
#688=VECTOR('',#687,1.0);
#689=LINE('',#650,#688);
#690=EDGE_CURVE('',#658,#655,#689,.T.);
#691=DIRECTION('',(0.0,0.0,1.0));
#692=VECTOR('',#691,1.0);
#693=LINE('',#643,#692);
#694=EDGE_CURVE('',#651,#655,#693,.T.);
#695=DIRECTION('',(0.0,0.0,1.0));
#696=VECTOR('',#695,1.0);
#697=LINE('',#644,#696);
#698=EDGE_CURVE('',#652,#656,#697,.T.);
#699=DIRECTION('',(0.0,0.0,1.0));
#700=VECTOR('',#699,1.0);
#701=LINE('',#645,#700);
#702=EDGE_CURVE('',#653,#657,#701,.T.);
#703=DIRECTION('',(0.0,0.0,1.0));
#704=VECTOR('',#703,1.0);
#705=LINE('',#646,#704);
#706=EDGE_CURVE('',#654,#658,#705,.T.);
#707=ORIENTED_EDGE('',*,*,#674,.F.);
#708=ORIENTED_EDGE('',*,*,#670,.F.);
#709=ORIENTED_EDGE('',*,*,#666,.F.);
#710=ORIENTED_EDGE('',*,*,#662,.F.);
#711=EDGE_LOOP('',(#707,#708,#709,#710));
#712=FACE_OUTER_BOUND('',#711,.T.);
#713=CARTESIAN_POINT('',(18.0,344.0,18.0));
#714=DIRECTION('',(0.0,0.0,-1.0));
#715=DIRECTION('',(1.0,0.0,0.0));
#716=AXIS2_PLACEMENT_3D('',#713,#714,#715);
#717=PLANE('',#716);
#718=ADVANCED_FACE('',(#712),#717,.T.);
#719=ORIENTED_EDGE('',*,*,#678,.T.);
#720=ORIENTED_EDGE('',*,*,#682,.T.);
#721=ORIENTED_EDGE('',*,*,#686,.T.);
#722=ORIENTED_EDGE('',*,*,#690,.T.);
#723=EDGE_LOOP('',(#719,#720,#721,#722));
#724=FACE_OUTER_BOUND('',#723,.T.);
#725=CARTESIAN_POINT('',(18.0,344.0,702.0));
#726=DIRECTION('',(0.0,0.0,1.0));
#727=DIRECTION('',(1.0,0.0,0.0));
#728=AXIS2_PLACEMENT_3D('',#725,#726,#727);
#729=PLANE('',#728);
#730=ADVANCED_FACE('',(#724),#729,.T.);
#731=ORIENTED_EDGE('',*,*,#662,.T.);
#732=ORIENTED_EDGE('',*,*,#698,.T.);
#733=ORIENTED_EDGE('',*,*,#678,.F.);
#734=ORIENTED_EDGE('',*,*,#694,.F.);
#735=EDGE_LOOP('',(#731,#732,#733,#734));
#736=FACE_OUTER_BOUND('',#735,.T.);
#737=CARTESIAN_POINT('',(18.0,344.0,18.0));
#738=DIRECTION('',(0.0,-1.0,0.0));
#739=DIRECTION('',(1.0,0.0,0.0));
#740=AXIS2_PLACEMENT_3D('',#737,#738,#739);
#741=PLANE('',#740);
#742=ADVANCED_FACE('',(#736),#741,.T.);
#743=ORIENTED_EDGE('',*,*,#670,.T.);
#744=ORIENTED_EDGE('',*,*,#706,.T.);
#745=ORIENTED_EDGE('',*,*,#686,.F.);
#746=ORIENTED_EDGE('',*,*,#702,.F.);
#747=EDGE_LOOP('',(#743,#744,#745,#746));
#748=FACE_OUTER_BOUND('',#747,.T.);
#749=CARTESIAN_POINT('',(582.0,350.0,18.0));
#750=DIRECTION('',(0.0,1.0,0.0));
#751=DIRECTION('',(-1.0,0.0,0.0));
#752=AXIS2_PLACEMENT_3D('',#749,#750,#751);
#753=PLANE('',#752);
#754=ADVANCED_FACE('',(#748),#753,.T.);
#755=ORIENTED_EDGE('',*,*,#694,.T.);
#756=ORIENTED_EDGE('',*,*,#690,.F.);
#757=ORIENTED_EDGE('',*,*,#706,.F.);
#758=ORIENTED_EDGE('',*,*,#674,.T.);
#759=EDGE_LOOP('',(#755,#756,#757,#758));
#760=FACE_OUTER_BOUND('',#759,.T.);
#761=CARTESIAN_POINT('',(18.0,344.0,18.0));
#762=DIRECTION('',(-1.0,0.0,0.0));
#763=DIRECTION('',(0.0,0.0,1.0));
#764=AXIS2_PLACEMENT_3D('',#761,#762,#763);
#765=PLANE('',#764);
#766=ADVANCED_FACE('',(#760),#765,.T.);
#767=ORIENTED_EDGE('',*,*,#666,.T.);
#768=ORIENTED_EDGE('',*,*,#702,.T.);
#769=ORIENTED_EDGE('',*,*,#682,.F.);
#770=ORIENTED_EDGE('',*,*,#698,.F.);
#771=EDGE_LOOP('',(#767,#768,#769,#770));
#772=FACE_OUTER_BOUND('',#771,.T.);
#773=CARTESIAN_POINT('',(582.0,344.0,18.0));
#774=DIRECTION('',(1.0,0.0,0.0));
#775=DIRECTION('',(0.0,1.0,0.0));
#776=AXIS2_PLACEMENT_3D('',#773,#774,#775);
#777=PLANE('',#776);
#778=ADVANCED_FACE('',(#772),#777,.T.);
#779=CLOSED_SHELL('',(#718,#730,#742,#754,#766,#778));
#780=MANIFOLD_SOLID_BREP('Fundo',#779);
#781=CARTESIAN_POINT('',(0.0,0.0,0.0));
#782=DIRECTION('',(0.0,0.0,1.0));
#783=DIRECTION('',(1.0,0.0,0.0));
#784=AXIS2_PLACEMENT_3D('',#781,#782,#783);
#785=ADVANCED_BREP_SHAPE_REPRESENTATION('Fundo',(#784,#780),#9);
#786=SHAPE_DEFINITION_REPRESENTATION(#642,#785);
#787=COLOUR_RGB('',0.878,0.784,0.639);
#788=FILL_AREA_STYLE_COLOUR('',#787);
#789=FILL_AREA_STYLE('',(#788));
#790=SURFACE_STYLE_FILL_AREA(#789);
#791=SURFACE_SIDE_STYLE('',(#790));
#792=SURFACE_STYLE_USAGE(.BOTH.,#791);
#793=PRESENTATION_STYLE_ASSIGNMENT((#792));
#794=STYLED_ITEM('',(#793),#780);
#795=PRODUCT('Prateleira Inferior','Prateleira Inferior','',(#3));
#796=PRODUCT_RELATED_PRODUCT_CATEGORY('part','',(#795));
#797=PRODUCT_DEFINITION_FORMATION('','',#795);
#798=PRODUCT_DEFINITION('design','',#797,#4);
#799=PRODUCT_DEFINITION_SHAPE('','',#798);
#800=CARTESIAN_POINT('',(18.0,10.0,251.0));
#801=CARTESIAN_POINT('',(582.0,10.0,251.0));
#802=CARTESIAN_POINT('',(582.0,340.0,251.0));
#803=CARTESIAN_POINT('',(18.0,340.0,251.0));
#804=CARTESIAN_POINT('',(18.0,10.0,269.0));
#805=CARTESIAN_POINT('',(582.0,10.0,269.0));
#806=CARTESIAN_POINT('',(582.0,340.0,269.0));
#807=CARTESIAN_POINT('',(18.0,340.0,269.0));
#808=VERTEX_POINT('',#800);
#809=VERTEX_POINT('',#801);
#810=VERTEX_POINT('',#802);
#811=VERTEX_POINT('',#803);
#812=VERTEX_POINT('',#804);
#813=VERTEX_POINT('',#805);
#814=VERTEX_POINT('',#806);
#815=VERTEX_POINT('',#807);
#816=DIRECTION('',(1.0,0.0,0.0));
#817=VECTOR('',#816,1.0);
#818=LINE('',#800,#817);
#819=EDGE_CURVE('',#808,#809,#818,.T.);
#820=DIRECTION('',(0.0,1.0,0.0));
#821=VECTOR('',#820,1.0);
#822=LINE('',#801,#821);
#823=EDGE_CURVE('',#809,#810,#822,.T.);
#824=DIRECTION('',(-1.0,0.0,0.0));
#825=VECTOR('',#824,1.0);
#826=LINE('',#802,#825);
#827=EDGE_CURVE('',#810,#811,#826,.T.);
#828=DIRECTION('',(0.0,-1.0,0.0));
#829=VECTOR('',#828,1.0);
#830=LINE('',#803,#829);
#831=EDGE_CURVE('',#811,#808,#830,.T.);
#832=DIRECTION('',(1.0,0.0,0.0));
#833=VECTOR('',#832,1.0);
#834=LINE('',#804,#833);
#835=EDGE_CURVE('',#812,#813,#834,.T.);
#836=DIRECTION('',(0.0,1.0,0.0));
#837=VECTOR('',#836,1.0);
#838=LINE('',#805,#837);
#839=EDGE_CURVE('',#813,#814,#838,.T.);
#840=DIRECTION('',(-1.0,0.0,0.0));
#841=VECTOR('',#840,1.0);
#842=LINE('',#806,#841);
#843=EDGE_CURVE('',#814,#815,#842,.T.);
#844=DIRECTION('',(0.0,-1.0,0.0));
#845=VECTOR('',#844,1.0);
#846=LINE('',#807,#845);
#847=EDGE_CURVE('',#815,#812,#846,.T.);
#848=DIRECTION('',(0.0,0.0,1.0));
#849=VECTOR('',#848,1.0);
#850=LINE('',#800,#849);
#851=EDGE_CURVE('',#808,#812,#850,.T.);
#852=DIRECTION('',(0.0,0.0,1.0));
#853=VECTOR('',#852,1.0);
#854=LINE('',#801,#853);
#855=EDGE_CURVE('',#809,#813,#854,.T.);
#856=DIRECTION('',(0.0,0.0,1.0));
#857=VECTOR('',#856,1.0);
#858=LINE('',#802,#857);
#859=EDGE_CURVE('',#810,#814,#858,.T.);
#860=DIRECTION('',(0.0,0.0,1.0));
#861=VECTOR('',#860,1.0);
#862=LINE('',#803,#861);
#863=EDGE_CURVE('',#811,#815,#862,.T.);
#864=ORIENTED_EDGE('',*,*,#831,.F.);
#865=ORIENTED_EDGE('',*,*,#827,.F.);
#866=ORIENTED_EDGE('',*,*,#823,.F.);
#867=ORIENTED_EDGE('',*,*,#819,.F.);
#868=EDGE_LOOP('',(#864,#865,#866,#867));
#869=FACE_OUTER_BOUND('',#868,.T.);
#870=CARTESIAN_POINT('',(18.0,10.0,251.0));
#871=DIRECTION('',(0.0,0.0,-1.0));
#872=DIRECTION('',(1.0,0.0,0.0));
#873=AXIS2_PLACEMENT_3D('',#870,#871,#872);
#874=PLANE('',#873);
#875=ADVANCED_FACE('',(#869),#874,.T.);
#876=ORIENTED_EDGE('',*,*,#835,.T.);
#877=ORIENTED_EDGE('',*,*,#839,.T.);
#878=ORIENTED_EDGE('',*,*,#843,.T.);
#879=ORIENTED_EDGE('',*,*,#847,.T.);
#880=EDGE_LOOP('',(#876,#877,#878,#879));
#881=FACE_OUTER_BOUND('',#880,.T.);
#882=CARTESIAN_POINT('',(18.0,10.0,269.0));
#883=DIRECTION('',(0.0,0.0,1.0));
#884=DIRECTION('',(1.0,0.0,0.0));
#885=AXIS2_PLACEMENT_3D('',#882,#883,#884);
#886=PLANE('',#885);
#887=ADVANCED_FACE('',(#881),#886,.T.);
#888=ORIENTED_EDGE('',*,*,#819,.T.);
#889=ORIENTED_EDGE('',*,*,#855,.T.);
#890=ORIENTED_EDGE('',*,*,#835,.F.);
#891=ORIENTED_EDGE('',*,*,#851,.F.);
#892=EDGE_LOOP('',(#888,#889,#890,#891));
#893=FACE_OUTER_BOUND('',#892,.T.);
#894=CARTESIAN_POINT('',(18.0,10.0,251.0));
#895=DIRECTION('',(0.0,-1.0,0.0));
#896=DIRECTION('',(1.0,0.0,0.0));
#897=AXIS2_PLACEMENT_3D('',#894,#895,#896);
#898=PLANE('',#897);
#899=ADVANCED_FACE('',(#893),#898,.T.);
#900=ORIENTED_EDGE('',*,*,#827,.T.);
#901=ORIENTED_EDGE('',*,*,#863,.T.);
#902=ORIENTED_EDGE('',*,*,#843,.F.);
#903=ORIENTED_EDGE('',*,*,#859,.F.);
#904=EDGE_LOOP('',(#900,#901,#902,#903));
#905=FACE_OUTER_BOUND('',#904,.T.);
#906=CARTESIAN_POINT('',(582.0,340.0,251.0));
#907=DIRECTION('',(0.0,1.0,0.0));
#908=DIRECTION('',(-1.0,0.0,0.0));
#909=AXIS2_PLACEMENT_3D('',#906,#907,#908);
#910=PLANE('',#909);
#911=ADVANCED_FACE('',(#905),#910,.T.);
#912=ORIENTED_EDGE('',*,*,#851,.T.);
#913=ORIENTED_EDGE('',*,*,#847,.F.);
#914=ORIENTED_EDGE('',*,*,#863,.F.);
#915=ORIENTED_EDGE('',*,*,#831,.T.);
#916=EDGE_LOOP('',(#912,#913,#914,#915));
#917=FACE_OUTER_BOUND('',#916,.T.);
#918=CARTESIAN_POINT('',(18.0,10.0,251.0));
#919=DIRECTION('',(-1.0,0.0,0.0));
#920=DIRECTION('',(0.0,0.0,1.0));
#921=AXIS2_PLACEMENT_3D('',#918,#919,#920);
#922=PLANE('',#921);
#923=ADVANCED_FACE('',(#917),#922,.T.);
#924=ORIENTED_EDGE('',*,*,#823,.T.);
#925=ORIENTED_EDGE('',*,*,#859,.T.);
#926=ORIENTED_EDGE('',*,*,#839,.F.);
#927=ORIENTED_EDGE('',*,*,#855,.F.);
#928=EDGE_LOOP('',(#924,#925,#926,#927));
#929=FACE_OUTER_BOUND('',#928,.T.);
#930=CARTESIAN_POINT('',(582.0,10.0,251.0));
#931=DIRECTION('',(1.0,0.0,0.0));
#932=DIRECTION('',(0.0,1.0,0.0));
#933=AXIS2_PLACEMENT_3D('',#930,#931,#932);
#934=PLANE('',#933);
#935=ADVANCED_FACE('',(#929),#934,.T.);
#936=CLOSED_SHELL('',(#875,#887,#899,#911,#923,#935));
#937=MANIFOLD_SOLID_BREP('Prateleira Inferior',#936);
#938=CARTESIAN_POINT('',(0.0,0.0,0.0));
#939=DIRECTION('',(0.0,0.0,1.0));
#940=DIRECTION('',(1.0,0.0,0.0));
#941=AXIS2_PLACEMENT_3D('',#938,#939,#940);
#942=ADVANCED_BREP_SHAPE_REPRESENTATION('Prateleira Inferior',(#941,#937),#9);
#943=SHAPE_DEFINITION_REPRESENTATION(#799,#942);
#944=COLOUR_RGB('',0.851,0.722,0.514);
#945=FILL_AREA_STYLE_COLOUR('',#944);
#946=FILL_AREA_STYLE('',(#945));
#947=SURFACE_STYLE_FILL_AREA(#946);
#948=SURFACE_SIDE_STYLE('',(#947));
#949=SURFACE_STYLE_USAGE(.BOTH.,#948);
#950=PRESENTATION_STYLE_ASSIGNMENT((#949));
#951=STYLED_ITEM('',(#950),#937);
#952=PRODUCT('Prateleira Superior','Prateleira Superior','',(#3));
#953=PRODUCT_RELATED_PRODUCT_CATEGORY('part','',(#952));
#954=PRODUCT_DEFINITION_FORMATION('','',#952);
#955=PRODUCT_DEFINITION('design','',#954,#4);
#956=PRODUCT_DEFINITION_SHAPE('','',#955);
#957=CARTESIAN_POINT('',(18.0,10.0,451.0));
#958=CARTESIAN_POINT('',(582.0,10.0,451.0));
#959=CARTESIAN_POINT('',(582.0,340.0,451.0));
#960=CARTESIAN_POINT('',(18.0,340.0,451.0));
#961=CARTESIAN_POINT('',(18.0,10.0,469.0));
#962=CARTESIAN_POINT('',(582.0,10.0,469.0));
#963=CARTESIAN_POINT('',(582.0,340.0,469.0));
#964=CARTESIAN_POINT('',(18.0,340.0,469.0));
#965=VERTEX_POINT('',#957);
#966=VERTEX_POINT('',#958);
#967=VERTEX_POINT('',#959);
#968=VERTEX_POINT('',#960);
#969=VERTEX_POINT('',#961);
#970=VERTEX_POINT('',#962);
#971=VERTEX_POINT('',#963);
#972=VERTEX_POINT('',#964);
#973=DIRECTION('',(1.0,0.0,0.0));
#974=VECTOR('',#973,1.0);
#975=LINE('',#957,#974);
#976=EDGE_CURVE('',#965,#966,#975,.T.);
#977=DIRECTION('',(0.0,1.0,0.0));
#978=VECTOR('',#977,1.0);
#979=LINE('',#958,#978);
#980=EDGE_CURVE('',#966,#967,#979,.T.);
#981=DIRECTION('',(-1.0,0.0,0.0));
#982=VECTOR('',#981,1.0);
#983=LINE('',#959,#982);
#984=EDGE_CURVE('',#967,#968,#983,.T.);
#985=DIRECTION('',(0.0,-1.0,0.0));
#986=VECTOR('',#985,1.0);
#987=LINE('',#960,#986);
#988=EDGE_CURVE('',#968,#965,#987,.T.);
#989=DIRECTION('',(1.0,0.0,0.0));
#990=VECTOR('',#989,1.0);
#991=LINE('',#961,#990);
#992=EDGE_CURVE('',#969,#970,#991,.T.);
#993=DIRECTION('',(0.0,1.0,0.0));
#994=VECTOR('',#993,1.0);
#995=LINE('',#962,#994);
#996=EDGE_CURVE('',#970,#971,#995,.T.);
#997=DIRECTION('',(-1.0,0.0,0.0));
#998=VECTOR('',#997,1.0);
#999=LINE('',#963,#998);
#1000=EDGE_CURVE('',#971,#972,#999,.T.);
#1001=DIRECTION('',(0.0,-1.0,0.0));
#1002=VECTOR('',#1001,1.0);
#1003=LINE('',#964,#1002);
#1004=EDGE_CURVE('',#972,#969,#1003,.T.);
#1005=DIRECTION('',(0.0,0.0,1.0));
#1006=VECTOR('',#1005,1.0);
#1007=LINE('',#957,#1006);
#1008=EDGE_CURVE('',#965,#969,#1007,.T.);
#1009=DIRECTION('',(0.0,0.0,1.0));
#1010=VECTOR('',#1009,1.0);
#1011=LINE('',#958,#1010);
#1012=EDGE_CURVE('',#966,#970,#1011,.T.);
#1013=DIRECTION('',(0.0,0.0,1.0));
#1014=VECTOR('',#1013,1.0);
#1015=LINE('',#959,#1014);
#1016=EDGE_CURVE('',#967,#971,#1015,.T.);
#1017=DIRECTION('',(0.0,0.0,1.0));
#1018=VECTOR('',#1017,1.0);
#1019=LINE('',#960,#1018);
#1020=EDGE_CURVE('',#968,#972,#1019,.T.);
#1021=ORIENTED_EDGE('',*,*,#988,.F.);
#1022=ORIENTED_EDGE('',*,*,#984,.F.);
#1023=ORIENTED_EDGE('',*,*,#980,.F.);
#1024=ORIENTED_EDGE('',*,*,#976,.F.);
#1025=EDGE_LOOP('',(#1021,#1022,#1023,#1024));
#1026=FACE_OUTER_BOUND('',#1025,.T.);
#1027=CARTESIAN_POINT('',(18.0,10.0,451.0));
#1028=DIRECTION('',(0.0,0.0,-1.0));
#1029=DIRECTION('',(1.0,0.0,0.0));
#1030=AXIS2_PLACEMENT_3D('',#1027,#1028,#1029);
#1031=PLANE('',#1030);
#1032=ADVANCED_FACE('',(#1026),#1031,.T.);
#1033=ORIENTED_EDGE('',*,*,#992,.T.);
#1034=ORIENTED_EDGE('',*,*,#996,.T.);
#1035=ORIENTED_EDGE('',*,*,#1000,.T.);
#1036=ORIENTED_EDGE('',*,*,#1004,.T.);
#1037=EDGE_LOOP('',(#1033,#1034,#1035,#1036));
#1038=FACE_OUTER_BOUND('',#1037,.T.);
#1039=CARTESIAN_POINT('',(18.0,10.0,469.0));
#1040=DIRECTION('',(0.0,0.0,1.0));
#1041=DIRECTION('',(1.0,0.0,0.0));
#1042=AXIS2_PLACEMENT_3D('',#1039,#1040,#1041);
#1043=PLANE('',#1042);
#1044=ADVANCED_FACE('',(#1038),#1043,.T.);
#1045=ORIENTED_EDGE('',*,*,#976,.T.);
#1046=ORIENTED_EDGE('',*,*,#1012,.T.);
#1047=ORIENTED_EDGE('',*,*,#992,.F.);
#1048=ORIENTED_EDGE('',*,*,#1008,.F.);
#1049=EDGE_LOOP('',(#1045,#1046,#1047,#1048));
#1050=FACE_OUTER_BOUND('',#1049,.T.);
#1051=CARTESIAN_POINT('',(18.0,10.0,451.0));
#1052=DIRECTION('',(0.0,-1.0,0.0));
#1053=DIRECTION('',(1.0,0.0,0.0));
#1054=AXIS2_PLACEMENT_3D('',#1051,#1052,#1053);
#1055=PLANE('',#1054);
#1056=ADVANCED_FACE('',(#1050),#1055,.T.);
#1057=ORIENTED_EDGE('',*,*,#984,.T.);
#1058=ORIENTED_EDGE('',*,*,#1020,.T.);
#1059=ORIENTED_EDGE('',*,*,#1000,.F.);
#1060=ORIENTED_EDGE('',*,*,#1016,.F.);
#1061=EDGE_LOOP('',(#1057,#1058,#1059,#1060));
#1062=FACE_OUTER_BOUND('',#1061,.T.);
#1063=CARTESIAN_POINT('',(582.0,340.0,451.0));
#1064=DIRECTION('',(0.0,1.0,0.0));
#1065=DIRECTION('',(-1.0,0.0,0.0));
#1066=AXIS2_PLACEMENT_3D('',#1063,#1064,#1065);
#1067=PLANE('',#1066);
#1068=ADVANCED_FACE('',(#1062),#1067,.T.);
#1069=ORIENTED_EDGE('',*,*,#1008,.T.);
#1070=ORIENTED_EDGE('',*,*,#1004,.F.);
#1071=ORIENTED_EDGE('',*,*,#1020,.F.);
#1072=ORIENTED_EDGE('',*,*,#988,.T.);
#1073=EDGE_LOOP('',(#1069,#1070,#1071,#1072));
#1074=FACE_OUTER_BOUND('',#1073,.T.);
#1075=CARTESIAN_POINT('',(18.0,10.0,451.0));
#1076=DIRECTION('',(-1.0,0.0,0.0));
#1077=DIRECTION('',(0.0,0.0,1.0));
#1078=AXIS2_PLACEMENT_3D('',#1075,#1076,#1077);
#1079=PLANE('',#1078);
#1080=ADVANCED_FACE('',(#1074),#1079,.T.);
#1081=ORIENTED_EDGE('',*,*,#980,.T.);
#1082=ORIENTED_EDGE('',*,*,#1016,.T.);
#1083=ORIENTED_EDGE('',*,*,#996,.F.);
#1084=ORIENTED_EDGE('',*,*,#1012,.F.);
#1085=EDGE_LOOP('',(#1081,#1082,#1083,#1084));
#1086=FACE_OUTER_BOUND('',#1085,.T.);
#1087=CARTESIAN_POINT('',(582.0,10.0,451.0));
#1088=DIRECTION('',(1.0,0.0,0.0));
#1089=DIRECTION('',(0.0,1.0,0.0));
#1090=AXIS2_PLACEMENT_3D('',#1087,#1088,#1089);
#1091=PLANE('',#1090);
#1092=ADVANCED_FACE('',(#1086),#1091,.T.);
#1093=CLOSED_SHELL('',(#1032,#1044,#1056,#1068,#1080,#1092));
#1094=MANIFOLD_SOLID_BREP('Prateleira Superior',#1093);
#1095=CARTESIAN_POINT('',(0.0,0.0,0.0));
#1096=DIRECTION('',(0.0,0.0,1.0));
#1097=DIRECTION('',(1.0,0.0,0.0));
#1098=AXIS2_PLACEMENT_3D('',#1095,#1096,#1097);
#1099=ADVANCED_BREP_SHAPE_REPRESENTATION('Prateleira Superior',(#1098,#1094),#9);
#1100=SHAPE_DEFINITION_REPRESENTATION(#956,#1099);
#1101=COLOUR_RGB('',0.851,0.722,0.514);
#1102=FILL_AREA_STYLE_COLOUR('',#1101);
#1103=FILL_AREA_STYLE('',(#1102));
#1104=SURFACE_STYLE_FILL_AREA(#1103);
#1105=SURFACE_SIDE_STYLE('',(#1104));
#1106=SURFACE_STYLE_USAGE(.BOTH.,#1105);
#1107=PRESENTATION_STYLE_ASSIGNMENT((#1106));
#1108=STYLED_ITEM('',(#1107),#1094);
#1109=PRODUCT('Porta','Porta','',(#3));
#1110=PRODUCT_RELATED_PRODUCT_CATEGORY('part','',(#1109));
#1111=PRODUCT_DEFINITION_FORMATION('','',#1109);
#1112=PRODUCT_DEFINITION('design','',#1111,#4);
#1113=PRODUCT_DEFINITION_SHAPE('','',#1112);
#1114=CARTESIAN_POINT('',(2.0,-21.0,2.0));
#1115=CARTESIAN_POINT('',(598.0,-21.0,2.0));
#1116=CARTESIAN_POINT('',(598.0,-3.0,2.0));
#1117=CARTESIAN_POINT('',(2.0,-3.0,2.0));
#1118=CARTESIAN_POINT('',(2.0,-21.0,718.0));
#1119=CARTESIAN_POINT('',(598.0,-21.0,718.0));
#1120=CARTESIAN_POINT('',(598.0,-3.0,718.0));
#1121=CARTESIAN_POINT('',(2.0,-3.0,718.0));
#1122=VERTEX_POINT('',#1114);
#1123=VERTEX_POINT('',#1115);
#1124=VERTEX_POINT('',#1116);
#1125=VERTEX_POINT('',#1117);
#1126=VERTEX_POINT('',#1118);
#1127=VERTEX_POINT('',#1119);
#1128=VERTEX_POINT('',#1120);
#1129=VERTEX_POINT('',#1121);
#1130=DIRECTION('',(1.0,0.0,0.0));
#1131=VECTOR('',#1130,1.0);
#1132=LINE('',#1114,#1131);
#1133=EDGE_CURVE('',#1122,#1123,#1132,.T.);
#1134=DIRECTION('',(0.0,1.0,0.0));
#1135=VECTOR('',#1134,1.0);
#1136=LINE('',#1115,#1135);
#1137=EDGE_CURVE('',#1123,#1124,#1136,.T.);
#1138=DIRECTION('',(-1.0,0.0,0.0));
#1139=VECTOR('',#1138,1.0);
#1140=LINE('',#1116,#1139);
#1141=EDGE_CURVE('',#1124,#1125,#1140,.T.);
#1142=DIRECTION('',(0.0,-1.0,0.0));
#1143=VECTOR('',#1142,1.0);
#1144=LINE('',#1117,#1143);
#1145=EDGE_CURVE('',#1125,#1122,#1144,.T.);
#1146=DIRECTION('',(1.0,0.0,0.0));
#1147=VECTOR('',#1146,1.0);
#1148=LINE('',#1118,#1147);
#1149=EDGE_CURVE('',#1126,#1127,#1148,.T.);
#1150=DIRECTION('',(0.0,1.0,0.0));
#1151=VECTOR('',#1150,1.0);
#1152=LINE('',#1119,#1151);
#1153=EDGE_CURVE('',#1127,#1128,#1152,.T.);
#1154=DIRECTION('',(-1.0,0.0,0.0));
#1155=VECTOR('',#1154,1.0);
#1156=LINE('',#1120,#1155);
#1157=EDGE_CURVE('',#1128,#1129,#1156,.T.);
#1158=DIRECTION('',(0.0,-1.0,0.0));
#1159=VECTOR('',#1158,1.0);
#1160=LINE('',#1121,#1159);
#1161=EDGE_CURVE('',#1129,#1126,#1160,.T.);
#1162=DIRECTION('',(0.0,0.0,1.0));
#1163=VECTOR('',#1162,1.0);
#1164=LINE('',#1114,#1163);
#1165=EDGE_CURVE('',#1122,#1126,#1164,.T.);
#1166=DIRECTION('',(0.0,0.0,1.0));
#1167=VECTOR('',#1166,1.0);
#1168=LINE('',#1115,#1167);
#1169=EDGE_CURVE('',#1123,#1127,#1168,.T.);
#1170=DIRECTION('',(0.0,0.0,1.0));
#1171=VECTOR('',#1170,1.0);
#1172=LINE('',#1116,#1171);
#1173=EDGE_CURVE('',#1124,#1128,#1172,.T.);
#1174=DIRECTION('',(0.0,0.0,1.0));
#1175=VECTOR('',#1174,1.0);
#1176=LINE('',#1117,#1175);
#1177=EDGE_CURVE('',#1125,#1129,#1176,.T.);
#1178=ORIENTED_EDGE('',*,*,#1145,.F.);
#1179=ORIENTED_EDGE('',*,*,#1141,.F.);
#1180=ORIENTED_EDGE('',*,*,#1137,.F.);
#1181=ORIENTED_EDGE('',*,*,#1133,.F.);
#1182=EDGE_LOOP('',(#1178,#1179,#1180,#1181));
#1183=FACE_OUTER_BOUND('',#1182,.T.);
#1184=CARTESIAN_POINT('',(2.0,-21.0,2.0));
#1185=DIRECTION('',(0.0,0.0,-1.0));
#1186=DIRECTION('',(1.0,0.0,0.0));
#1187=AXIS2_PLACEMENT_3D('',#1184,#1185,#1186);
#1188=PLANE('',#1187);
#1189=ADVANCED_FACE('',(#1183),#1188,.T.);
#1190=ORIENTED_EDGE('',*,*,#1149,.T.);
#1191=ORIENTED_EDGE('',*,*,#1153,.T.);
#1192=ORIENTED_EDGE('',*,*,#1157,.T.);
#1193=ORIENTED_EDGE('',*,*,#1161,.T.);
#1194=EDGE_LOOP('',(#1190,#1191,#1192,#1193));
#1195=FACE_OUTER_BOUND('',#1194,.T.);
#1196=CARTESIAN_POINT('',(2.0,-21.0,718.0));
#1197=DIRECTION('',(0.0,0.0,1.0));
#1198=DIRECTION('',(1.0,0.0,0.0));
#1199=AXIS2_PLACEMENT_3D('',#1196,#1197,#1198);
#1200=PLANE('',#1199);
#1201=ADVANCED_FACE('',(#1195),#1200,.T.);
#1202=ORIENTED_EDGE('',*,*,#1133,.T.);
#1203=ORIENTED_EDGE('',*,*,#1169,.T.);
#1204=ORIENTED_EDGE('',*,*,#1149,.F.);
#1205=ORIENTED_EDGE('',*,*,#1165,.F.);
#1206=EDGE_LOOP('',(#1202,#1203,#1204,#1205));
#1207=FACE_OUTER_BOUND('',#1206,.T.);
#1208=CARTESIAN_POINT('',(2.0,-21.0,2.0));
#1209=DIRECTION('',(0.0,-1.0,0.0));
#1210=DIRECTION('',(1.0,0.0,0.0));
#1211=AXIS2_PLACEMENT_3D('',#1208,#1209,#1210);
#1212=PLANE('',#1211);
#1213=ADVANCED_FACE('',(#1207),#1212,.T.);
#1214=ORIENTED_EDGE('',*,*,#1141,.T.);
#1215=ORIENTED_EDGE('',*,*,#1177,.T.);
#1216=ORIENTED_EDGE('',*,*,#1157,.F.);
#1217=ORIENTED_EDGE('',*,*,#1173,.F.);
#1218=EDGE_LOOP('',(#1214,#1215,#1216,#1217));
#1219=FACE_OUTER_BOUND('',#1218,.T.);
#1220=CARTESIAN_POINT('',(598.0,-3.0,2.0));
#1221=DIRECTION('',(0.0,1.0,0.0));
#1222=DIRECTION('',(-1.0,0.0,0.0));
#1223=AXIS2_PLACEMENT_3D('',#1220,#1221,#1222);
#1224=PLANE('',#1223);
#1225=ADVANCED_FACE('',(#1219),#1224,.T.);
#1226=ORIENTED_EDGE('',*,*,#1165,.T.);
#1227=ORIENTED_EDGE('',*,*,#1161,.F.);
#1228=ORIENTED_EDGE('',*,*,#1177,.F.);
#1229=ORIENTED_EDGE('',*,*,#1145,.T.);
#1230=EDGE_LOOP('',(#1226,#1227,#1228,#1229));
#1231=FACE_OUTER_BOUND('',#1230,.T.);
#1232=CARTESIAN_POINT('',(2.0,-21.0,2.0));
#1233=DIRECTION('',(-1.0,0.0,0.0));
#1234=DIRECTION('',(0.0,0.0,1.0));
#1235=AXIS2_PLACEMENT_3D('',#1232,#1233,#1234);
#1236=PLANE('',#1235);
#1237=ADVANCED_FACE('',(#1231),#1236,.T.);
#1238=ORIENTED_EDGE('',*,*,#1137,.T.);
#1239=ORIENTED_EDGE('',*,*,#1173,.T.);
#1240=ORIENTED_EDGE('',*,*,#1153,.F.);
#1241=ORIENTED_EDGE('',*,*,#1169,.F.);
#1242=EDGE_LOOP('',(#1238,#1239,#1240,#1241));
#1243=FACE_OUTER_BOUND('',#1242,.T.);
#1244=CARTESIAN_POINT('',(598.0,-21.0,2.0));
#1245=DIRECTION('',(1.0,0.0,0.0));
#1246=DIRECTION('',(0.0,1.0,0.0));
#1247=AXIS2_PLACEMENT_3D('',#1244,#1245,#1246);
#1248=PLANE('',#1247);
#1249=ADVANCED_FACE('',(#1243),#1248,.T.);
#1250=CLOSED_SHELL('',(#1189,#1201,#1213,#1225,#1237,#1249));
#1251=MANIFOLD_SOLID_BREP('Porta',#1250);
#1252=CARTESIAN_POINT('',(0.0,0.0,0.0));
#1253=DIRECTION('',(0.0,0.0,1.0));
#1254=DIRECTION('',(1.0,0.0,0.0));
#1255=AXIS2_PLACEMENT_3D('',#1252,#1253,#1254);
#1256=ADVANCED_BREP_SHAPE_REPRESENTATION('Porta',(#1255,#1251),#9);
#1257=SHAPE_DEFINITION_REPRESENTATION(#1113,#1256);
#1258=COLOUR_RGB('',0.663,0.502,0.357);
#1259=FILL_AREA_STYLE_COLOUR('',#1258);
#1260=FILL_AREA_STYLE('',(#1259));
#1261=SURFACE_STYLE_FILL_AREA(#1260);
#1262=SURFACE_SIDE_STYLE('',(#1261));
#1263=SURFACE_STYLE_USAGE(.BOTH.,#1262);
#1264=PRESENTATION_STYLE_ASSIGNMENT((#1263));
#1265=STYLED_ITEM('',(#1264),#1251);
#1266=MECHANICAL_DESIGN_GEOMETRIC_PRESENTATION_REPRESENTATION('',(#166,#323,#480,#637,#794,#951,#1108,#1265),#9);
ENDSEC;
END-ISO-10303-21;
